<?xml version="1.0" encoding="UTF-8"?>
<svg version="1.1" xmlns="http://www.w3.org/2000/svg" width="763" height="326" fill="currentColor">
<path d="M0 0 C6.07731316 5.32414187 9.26674125 12.57706443 10.62109375 20.4609375 C11.12341847 29.85576741 7.35744973 38.71165928 1.140625 45.6640625 C-6.19831195 51.13607689 -13.99434751 51.42755769 -22.859375 50.6640625 C-28.4938855 49.01318681 -31.8110458 45.84410105 -35.859375 41.6640625 C-35.85151978 42.53357544 -35.85151978 42.53357544 -35.84350586 43.4206543 C-35.82263166 46.0642792 -35.80968173 48.70788671 -35.796875 51.3515625 C-35.78849609 52.26357422 -35.78011719 53.17558594 -35.77148438 54.11523438 C-35.76665039 55.44458008 -35.76665039 55.44458008 -35.76171875 56.80078125 C-35.75386353 58.01834106 -35.75386353 58.01834106 -35.74584961 59.26049805 C-35.859375 61.6640625 -35.859375 61.6640625 -36.859375 66.6640625 C-42.139375 66.6640625 -47.419375 66.6640625 -52.859375 66.6640625 C-52.859375 43.5640625 -52.859375 20.4640625 -52.859375 -3.3359375 C-47.909375 -3.3359375 -42.959375 -3.3359375 -37.859375 -3.3359375 C-37.529375 -0.6959375 -37.199375 1.9440625 -36.859375 4.6640625 C-36.25609375 4.09816406 -35.6528125 3.53226563 -35.03125 2.94921875 C-34.23203125 2.21574219 -33.4328125 1.48226562 -32.609375 0.7265625 C-31.82046875 -0.00433594 -31.0315625 -0.73523438 -30.21875 -1.48828125 C-22.35358732 -7.64758911 -7.76748961 -5.58084338 0 0 Z M-37.859375 5.6640625 C-36.859375 9.6640625 -36.859375 9.6640625 -36.859375 9.6640625 Z M-33.859375 14.6640625 C-36.90649713 19.2347457 -37.13004334 23.04005246 -36.234375 28.4140625 C-34.5876879 32.306232 -33.64396473 32.93074092 -29.859375 34.6640625 C-26.22115395 35.13785813 -26.22115395 35.13785813 -22.359375 35.0390625 C-20.42578125 35.05066406 -20.42578125 35.05066406 -18.453125 35.0625 C-14.71102984 34.64761554 -12.82258294 33.931656 -9.859375 31.6640625 C-7.56458202 27.73013167 -7.39546512 24.14852464 -7.859375 19.6640625 C-8.9158743 16.91934267 -10.10316914 15.10323731 -11.859375 12.6640625 C-15.2127837 11.35284202 -18.73164405 11.46352235 -22.296875 11.4140625 C-23.40933594 11.38828125 -24.52179688 11.3625 -25.66796875 11.3359375 C-29.22728607 11.70188934 -31.02228951 12.52248827 -33.859375 14.6640625 Z M-36.859375 37.6640625 C-35.859375 40.6640625 -35.859375 40.6640625 -35.859375 40.6640625 Z " transform="translate(198.859375,141.3359375)"/>
<path d="M0 0 C5.61 0 11.22 0 17 0 C17 11.88 17 23.76 17 36 C18.485 35.505 18.485 35.505 20 35 C22.26171875 35.12109375 22.26171875 35.12109375 24.6875 35.4375 C25.49574219 35.53933594 26.30398438 35.64117187 27.13671875 35.74609375 C27.75160156 35.82988281 28.36648438 35.91367188 29 36 C29.24878906 35.32582031 29.49757813 34.65164062 29.75390625 33.95703125 C32.35191534 27.79184982 35.35434075 20.94912896 41 17 C47.20136344 15.29335775 53.71091635 16.18642244 60 17 C60 17.66 60 18.32 60 19 C60.66 19.33 61.32 19.66 62 20 C61.01 20 60.02 20 59 20 C59 20.66 59 21.32 59 22 C58.34 22 57.68 22 57 22 C57 22.66 57 23.32 57 24 C56.34 24 55.68 24 55 24 C54.76410156 24.71027344 54.52820313 25.42054688 54.28515625 26.15234375 C52.30786969 30.53362613 49.12428 33.77023059 45.99609375 37.37890625 C44.09351674 39.87720209 43.31158503 40.9571719 43 44 C43.97153583 46.11893263 43.97153583 46.11893263 45.5703125 48.15234375 C46.1375 48.92900391 46.7046875 49.70566406 47.2890625 50.50585938 C47.89492188 51.30830078 48.50078125 52.11074219 49.125 52.9375 C49.70765625 53.73607422 50.2903125 54.53464844 50.890625 55.35742188 C54.00439815 59.57078981 57.17034582 63.42324751 61 67 C60.505 68.485 60.505 68.485 60 70 C44.05138531 72.23115335 44.05138531 72.23115335 39.05273438 68.57617188 C35.7346487 65.02846089 33.22957695 60.98457634 30.93530273 56.7175293 C30.04955854 55.09100609 29.02733719 53.54100579 28 52 C25.3443272 51.41651248 25.3443272 51.41651248 22.375 51.3125 C21.37210938 51.24675781 20.36921875 51.18101562 19.3359375 51.11328125 C18.56507813 51.07589844 17.79421875 51.03851563 17 51 C17.33 51.99 17.66 52.98 18 54 C17.91232913 56.74607776 17.77043265 59.45091508 17.5625 62.1875 C17.51029297 62.93708984 17.45808594 63.68667969 17.40429688 64.45898438 C17.27486216 66.30637082 17.13813482 68.15324371 17 70 C14.35409986 70.02684679 11.70846904 70.04676357 9.0625 70.0625 C8.30775391 70.07087891 7.55300781 70.07925781 6.77539062 70.08789062 C4.85005687 70.09652441 2.92464419 70.05224333 1 70 C-1.26803985 67.73196015 -0.45797039 62.53958456 -0.58984375 59.4921875 C-0.63302231 58.51144257 -0.67620087 57.53069763 -0.72068787 56.52023315 C-1.1611433 45.04551096 -0.87616572 33.59926726 -0.5625 22.125 C-0.50906478 19.96095469 -0.45632743 17.79689204 -0.40429688 15.6328125 C-0.27752874 10.42164102 -0.14148253 5.21079188 0 0 Z " transform="translate(505,121)"/>
<path d="M0 0 C4.9059272 3.93552402 7.77764928 7.56566977 9.8203125 13.5234375 C9.8203125 17.8134375 9.8203125 22.1034375 9.8203125 26.5234375 C-4.0396875 26.5234375 -17.8996875 26.5234375 -32.1796875 26.5234375 C-30.02205484 33.08072328 -30.02205484 33.08072328 -27.3984375 34.9453125 C-24.43794375 35.71670876 -21.73822821 35.7874675 -18.6796875 35.7734375 C-16.99359375 35.78117187 -16.99359375 35.78117187 -15.2734375 35.7890625 C-12.26063118 35.53038721 -10.55429999 35.38280388 -8.1796875 33.5234375 C-7.8496875 31.8734375 -7.5196875 30.2234375 -7.1796875 28.5234375 C-1.2396875 28.5234375 4.7003125 28.5234375 10.8203125 28.5234375 C9.16449965 36.41289873 7.66833695 41.88241909 0.8203125 46.5234375 C-8.37113911 51.67924341 -19.25399697 51.94215471 -29.40234375 49.86328125 C-37.07050769 47.42676699 -41.82979716 43.28326205 -46.0546875 36.5234375 C-47.34575474 33.08059151 -47.87857755 30.19697884 -48.1796875 26.5234375 C-48.26734375 25.69714844 -48.355 24.87085938 -48.4453125 24.01953125 C-48.93255162 16.23477898 -46.84576 10.74817677 -42.1796875 4.5234375 C-39.72465436 2.04314682 -37.21637645 0.23048635 -34.1796875 -1.4765625 C-33.59832031 -1.81429687 -33.01695312 -2.15203125 -32.41796875 -2.5 C-22.74167276 -7.07577554 -8.8127197 -5.9699069 0 0 Z M-28.1796875 10.5234375 C-28.5096875 11.5134375 -28.8396875 12.5034375 -29.1796875 13.5234375 C-29.8396875 13.5234375 -30.4996875 13.5234375 -31.1796875 13.5234375 C-31.5096875 14.8434375 -31.8396875 16.1634375 -32.1796875 17.5234375 C-23.5996875 17.5234375 -15.0196875 17.5234375 -6.1796875 17.5234375 C-6.60764216 12.59649851 -6.60764216 12.59649851 -9.3671875 10.7734375 C-16.06339896 7.79734352 -21.27833589 8.87311429 -28.1796875 10.5234375 Z " transform="translate(259.1796875,141.4765625)"/>
<path d="M0 0 C6.6 0 13.2 0 20 0 C21.67356211 3.61069746 23.34632232 7.2217503 25.01708984 10.83374023 C25.58498629 12.0608426 26.15333911 13.28773388 26.72216797 14.5144043 C27.54255966 16.28377798 28.36114177 18.05399033 29.1796875 19.82421875 C29.91807861 21.41882935 29.91807861 21.41882935 30.67138672 23.0456543 C31.85339269 25.67399945 32.95385562 28.31518548 34 31 C34.99 31 35.98 31 37 31 C37.23589844 29.91589844 37.47179687 28.83179688 37.71484375 27.71484375 C39.11588478 22.1143828 41.34365648 16.88001284 43.5625 11.5625 C43.97435547 10.55767578 44.38621094 9.55285156 44.81054688 8.51757812 C47.85718786 1.14281214 47.85718786 1.14281214 49 0 C50.34267413 -0.08631874 51.68974322 -0.10706473 53.03515625 -0.09765625 C53.84404297 -0.09443359 54.65292969 -0.09121094 55.48632812 -0.08789062 C56.33646484 -0.07951172 57.18660156 -0.07113281 58.0625 -0.0625 C58.91650391 -0.05798828 59.77050781 -0.05347656 60.65039062 -0.04882812 C62.76695663 -0.03700373 64.88348685 -0.01906769 67 0 C65.33333333 5 63.66666667 10 62 15 C61.34 15 60.68 15 60 15 C59.47212891 16.76150391 59.47212891 16.76150391 58.93359375 18.55859375 C56.56974131 25.64460538 53.25334754 32.32225506 50.0625 39.0625 C49.43511162 40.39888429 48.80815564 41.73547167 48.18164062 43.07226562 C46.46860125 46.72168099 44.73571732 50.36131896 43 54 C42.59942383 54.85658203 42.19884766 55.71316406 41.78613281 56.59570312 C40.12790703 60.06507466 38.63467644 62.93052101 35.625 65.375 C34.80902344 66.06722656 34.80902344 66.06722656 33.9765625 66.7734375 C28.23531133 70.3361902 22.65058503 70.25275995 16.125 70.125 C14.80628906 70.11146484 14.80628906 70.11146484 13.4609375 70.09765625 C11.3071729 70.07424577 9.15354986 70.0383801 7 70 C7 65.05 7 60.1 7 55 C15.415 54.505 15.415 54.505 24 54 C24.33 53.34 24.66 52.68 25 52 C24.11316841 49.58716246 24.11316841 49.58716246 22.71875 46.86328125 C22.20924805 45.8172876 21.69974609 44.77129395 21.17480469 43.69360352 C20.34577637 42.01995728 20.34577637 42.01995728 19.5 40.3125 C18.39013723 38.03669615 17.28076088 35.760655 16.171875 33.484375 C15.62853516 32.37513672 15.08519531 31.26589844 14.52539062 30.12304688 C12.56888616 26.11734822 10.6453988 22.09741757 8.75 18.0625 C7.93789063 16.34740234 7.93789063 16.34740234 7.109375 14.59765625 C6 12 6 12 6 10 C5.34 9.67 4.68 9.34 4 9 C2.68 6.03 1.36 3.06 0 0 Z M35 32 C35 35 35 35 35 35 Z " transform="translate(378,138)"/>
<path d="M0 0 C3.92050731 3.61963116 5.37660253 8.23613755 6.125 13.4375 C5.795 14.0975 5.465 14.7575 5.125 15.4375 C1.165 15.4375 -2.795 15.4375 -6.875 15.4375 C-7.205 16.0975 -7.535 16.7575 -7.875 17.4375 C-9.525 17.1075 -11.175 16.7775 -12.875 16.4375 C-12.875 14.4575 -12.875 12.4775 -12.875 10.4375 C-18.90096573 9.3662172 -24.76409517 9.33804585 -30.875 9.4375 C-30.875 11.0875 -30.875 12.7375 -30.875 14.4375 C-29.6684375 14.4065625 -29.6684375 14.4065625 -28.4375 14.375 C-25.875 14.4375 -25.875 14.4375 -24.875 15.4375 C-23.44952137 15.66397617 -22.01458864 15.83175564 -20.578125 15.97265625 C-19.7015625 16.05966797 -18.825 16.14667969 -17.921875 16.23632812 C-16.99890625 16.32333984 -16.0759375 16.41035156 -15.125 16.5 C-14.2175 16.59087891 -13.31 16.68175781 -12.375 16.77539062 C-8.1856772 17.1826859 -4.08770767 17.48569068 0.125 17.4375 C-0.205 18.0975 -0.535 18.7575 -0.875 19.4375 C0.25019288 20.56269288 1.40809643 21.65479661 2.5625 22.75 C5.27048375 25.59008052 6.96150553 27.59478103 7.3125 31.55078125 C6.87327558 36.70251764 5.76964893 40.2065905 2.08984375 43.9296875 C-6.61902814 50.6128377 -17.44488177 50.28872892 -27.875 49.4375 C-33.95880057 48.29008035 -40.5020479 45.88973872 -44.12890625 40.61328125 C-46.39303675 36.47157912 -47.35499715 33.23747148 -46.875 28.4375 C-42.42 27.9425 -42.42 27.9425 -37.875 27.4375 C-37.875 26.7775 -37.875 26.1175 -37.875 25.4375 C-39.85446592 24.07386792 -41.8569245 22.74331356 -43.875 21.4375 C-45.75 19.875 -45.75 19.875 -46.875 18.4375 C-46.875 17.4475 -46.875 16.4575 -46.875 15.4375 C-47.535 15.4375 -48.195 15.4375 -48.875 15.4375 C-48.875 12.7975 -48.875 10.1575 -48.875 7.4375 C-48.215 7.4375 -47.555 7.4375 -46.875 7.4375 C-46.7821875 6.32375 -46.7821875 6.32375 -46.6875 5.1875 C-45.32398285 0.57251887 -41.91176101 -0.97932193 -37.875 -3.25 C-26.55886511 -8.20080901 -10.04519087 -7.32634789 0 0 Z M-34.875 25.4375 C-34.875 26.4275 -34.875 27.4175 -34.875 28.4375 C-34.215 27.7775 -33.555 27.1175 -32.875 26.4375 C-33.535 26.1075 -34.195 25.7775 -34.875 25.4375 Z M-31.875 26.4375 C-31.25467524 29.90235707 -31.25467524 29.90235707 -29.875 33.4375 C-26.0169606 35.60329468 -22.54880179 35.67970276 -18.1875 35.625 C-17.04925781 35.61855469 -15.91101563 35.61210937 -14.73828125 35.60546875 C-11.93052819 35.62945839 -11.93052819 35.62945839 -9.875 34.4375 C-9.875 32.7875 -9.875 31.1375 -9.875 29.4375 C-12.41546458 28.93061395 -14.95708876 28.43183126 -17.5 27.9375 C-18.21285156 27.79441406 -18.92570312 27.65132812 -19.66015625 27.50390625 C-23.79644935 26.70700574 -27.63933679 26.27715944 -31.875 26.4375 Z " transform="translate(493.875,142.5625)"/>
<path d="M0 0 C17.49 0 34.98 0 53 0 C53.495 2.97 53.495 2.97 54 6 C54.2475 7.258125 54.495 8.51625 54.75 9.8125 C54.68158052 12.82865871 54.16049187 13.82259679 52.109375 16.08984375 C49.74317662 18.04868762 47.32786218 19.89186018 44.82861328 21.67724609 C42.78020488 23.15899199 40.77889368 24.69386707 38.77734375 26.23828125 C32.89666719 30.74908746 32.89666719 30.74908746 30.30859375 32.69140625 C29.71876709 33.13685791 29.12894043 33.58230957 28.52124023 34.04125977 C27 35 27 35 25 35 C24.67 35.66 24.34 36.32 24 37 C34.23 37.33 44.46 37.66 55 38 C55 42.95 55 47.9 55 53 C35.86 53 16.72 53 -3 53 C-2.67 52.01 -2.34 51.02 -2 50 C-2.04640625 49.15308594 -2.0928125 48.30617187 -2.140625 47.43359375 C-2.2678435 43.94871567 -2.04661489 41.3401733 -1 38 C2.33403681 34.45237645 6.07318885 31.91339555 10.13330078 29.26171875 C13.28078607 27.13430521 16.21640329 24.73925231 19.1875 22.375 C24.69604465 18 24.69604465 18 27 18 C27.33 17.34 27.66 16.68 28 16 C14.14 15.505 14.14 15.505 0 15 C0 10.05 0 5.1 0 0 Z " transform="translate(638,138)"/>
<path d="M0 0 C22.44 0 44.88 0 68 0 C68 4.95 68 9.9 68 15 C59.42 15 50.84 15 42 15 C42 33.15 42 51.3 42 70 C36.72 70 31.44 70 26 70 C25 69 25 69 24.87974548 66.82969666 C24.88196609 65.87261307 24.88418671 64.91552948 24.88647461 63.92944336 C24.88655014 62.84839828 24.88662567 61.76735321 24.88670349 60.65354919 C24.89186478 59.4775264 24.89702606 58.3015036 24.90234375 57.08984375 C24.9037587 55.89267227 24.90517365 54.69550079 24.90663147 53.46205139 C24.91225021 49.62050934 24.92480589 45.77902457 24.9375 41.9375 C24.94251259 39.34049563 24.94707591 36.74349035 24.95117188 34.14648438 C24.96137687 27.76428284 24.98094864 21.3822059 25 15 C16.42 15 7.84 15 -1 15 C-0.67 10.05 -0.34 5.1 0 0 Z " transform="translate(73,121)"/>
<path d="M0 0 C0.33 2.97 0.66 5.94 1 9 C1.886875 7.88625 2.77375 6.7725 3.6875 5.625 C6.78046527 1.74081106 9.72083904 0.28909711 14.6484375 -0.3359375 C21.04295192 -0.42754945 24.89244683 0.0390404 30 4 C36.03289111 11.46173374 35.09312405 18.78071892 35 28 C29.06 28 23.12 28 17 28 C17.06510417 25.4609375 17.13020833 22.921875 17.1953125 20.3828125 C17.24324836 17.81193006 17.24324836 17.81193006 15 16 C12.62901094 15.71891337 12.62901094 15.71891337 10 15.8125 C9.113125 15.81894531 8.22625 15.82539063 7.3125 15.83203125 C4.97393655 15.85418073 4.97393655 15.85418073 3 17 C1.79838489 20.60484534 1.76982864 23.97289857 1.68359375 27.73046875 C1.66281265 28.48088943 1.64203156 29.23131012 1.62062073 30.00447083 C1.55530074 32.39872184 1.49632208 34.79308139 1.4375 37.1875 C1.39429807 38.81186013 1.35068324 40.43620933 1.30664062 42.06054688 C1.1988611 46.04025502 1.09965785 50.02004701 1 54 C-7.415 54.495 -7.415 54.495 -16 55 C-16.87669827 45.02755716 -17.10990959 35.13685498 -17.125 25.125 C-17.12951172 23.87759033 -17.13402344 22.63018066 -17.13867188 21.3449707 C-17.10939541 3.10939541 -17.10939541 3.10939541 -15 1 C-12.67105254 0.76419407 -10.33614827 0.58586426 -8 0.4375 C-6.72125 0.35371094 -5.4425 0.26992187 -4.125 0.18359375 C-1 0 -1 0 0 0 Z " transform="translate(290,137)"/>
<path d="M0 0 C4.48350987 3.28061698 7.13522422 6.07433776 8.4375 11.5625 C8.80626974 16.69537605 8.13593545 21.777796 7.5625 26.875 C1.9525 26.875 -3.6575 26.875 -9.4375 26.875 C-9.66536458 24.62890625 -9.89322917 22.3828125 -10.12109375 20.13671875 C-10.39015693 17.71412821 -10.39015693 17.71412821 -11.4375 14.875 C-13.22883978 14.82108007 -15.02063899 14.78224429 -16.8125 14.75 C-17.81023437 14.72679687 -18.80796875 14.70359375 -19.8359375 14.6796875 C-22.60012173 14.60283152 -22.60012173 14.60283152 -24.4375 16.875 C-24.67079204 19.51151969 -24.78686892 22.05112964 -24.81640625 24.69140625 C-24.83340073 25.46306625 -24.8503952 26.23472626 -24.86790466 27.0297699 C-24.92111952 29.49892978 -24.96137395 31.9680721 -25 34.4375 C-25.04387232 36.91041268 -25.09052474 39.38319226 -25.14280701 41.85594177 C-25.17485639 43.39609319 -25.20171742 44.93636253 -25.22303772 46.47669983 C-25.32576809 51.76326809 -25.32576809 51.76326809 -26.4375 52.875 C-31.7175 52.875 -36.9975 52.875 -42.4375 52.875 C-42.4375 35.385 -42.4375 17.895 -42.4375 -0.125 C-37.1575 -0.125 -31.8775 -0.125 -26.4375 -0.125 C-26.4375 3.175 -26.4375 6.475 -26.4375 9.875 C-25.880625 8.9675 -25.32375 8.06 -24.75 7.125 C-18.5095719 -1.64533138 -10.11213226 -3.3094251 0 0 Z " transform="translate(371.4375,138.125)"/>
<path d="M0 0 C0.74886475 0.00523682 1.49772949 0.01047363 2.26928711 0.01586914 C3.07817383 0.0190918 3.88706055 0.02231445 4.72045898 0.02563477 C5.5705957 0.03401367 6.42073242 0.04239258 7.29663086 0.05102539 C8.15063477 0.05553711 9.00463867 0.06004883 9.88452148 0.06469727 C12.00108749 0.07652166 14.11761771 0.0944577 16.23413086 0.11352539 C16.25725631 9.22311704 16.27504698 18.33269865 16.28594303 27.44231319 C16.29117142 31.6718391 16.29826826 35.90134499 16.30957031 40.13085938 C16.32040077 44.20921082 16.32640803 48.28754296 16.3290081 52.36590767 C16.33086207 53.92530178 16.33448213 55.48469479 16.33986092 57.04408073 C16.34707347 59.22081701 16.34812171 61.39747253 16.34765625 63.57421875 C16.34987686 64.81554062 16.35209747 66.05686249 16.35438538 67.33580017 C16.23413086 70.11352539 16.23413086 70.11352539 15.23413086 71.11352539 C12.37145519 71.18677707 9.53341186 71.20590744 6.67163086 71.17602539 C5.86532227 71.17151367 5.05901367 71.16700195 4.22827148 71.16235352 C2.2301933 71.15053057 0.23215303 71.13259453 -1.76586914 71.11352539 C-1.91946054 62.00401868 -2.06764224 52.89444501 -2.20883274 43.78473759 C-2.27455822 39.55517303 -2.3421782 35.32565613 -2.4140625 31.09619141 C-2.48330878 27.01790294 -2.54766396 22.93956445 -2.60856438 18.86114311 C-2.63272228 17.30172336 -2.65867117 15.74233033 -2.68640327 14.18297005 C-2.72481393 12.00629994 -2.75697276 9.82962358 -2.78759766 7.65283203 C-2.80758316 6.41151016 -2.82756866 5.17018829 -2.84815979 3.89125061 C-2.73809561 0.17602854 -2.73809561 0.17602854 0 0 Z " transform="translate(593.765869140625,119.886474609375)"/>
<path d="M0 0 C5.28 0 10.56 0 16 0 C16 23.1 16 46.2 16 70 C10.72 70 5.44 70 0 70 C0 46.9 0 23.8 0 0 Z " transform="translate(616,121)"/>
<path d="M0 0 C5.28 0 10.56 0 16 0 C16 4.29 16 8.58 16 13 C10.72 13 5.44 13 0 13 C0 8.71 0 4.42 0 0 Z " transform="translate(568,120)"/>
</svg>
